<svg width="79" height="79" viewBox="0 0 79 79" fill="none" xmlns="http://www.w3.org/2000/svg">
<path d="M39.9937 5.30782H44.1905V13.3313H39.9937V5.30782Z" fill="#D0D0D0"/>
<path d="M44.1907 5.30782H47.0297V13.3313H44.1907V5.30782Z" fill="#94989B"/>
<path d="M38.5125 2.46875H45.5484V5.30781H38.5125V2.46875Z" fill="#D0D0D0"/>
<path d="M45.5483 2.46875H48.3874V5.30781H45.5483V2.46875Z" fill="#94989B"/>
<path d="M29.8718 2.46875L3.33276 17.6516H56.5343L29.8718 2.46875Z" fill="#ED4C5C"/>
<path d="M10.8625 17.6516H49.0047V41.1047H10.8625V17.6516Z" fill="#F9F3D9"/>
<path d="M25.1812 24.6875H34.6858V34.1922H25.1812V24.6875Z" fill="#D6EEF0"/>
<path d="M23.9468 23.4531V35.3031H35.7968V23.4531H23.9468ZM34.6858 24.6875V28.8844H30.489V24.6875H34.6858ZM29.378 24.6875V28.8844H25.1812V24.6875H29.378ZM25.1812 34.1922V29.9953H29.378V34.1922H25.1812ZM30.489 34.1922V29.9953H34.6858V34.1922H30.489Z" fill="#89664C"/>
<path d="M7.8999 50.4859H64.1874V74.3094H7.8999V50.4859Z" fill="#F9F3D9"/>
<path d="M45.5483 57.5219H55.053V67.0266H45.5483V57.5219Z" fill="#D6EEF0"/>
<path d="M44.314 56.4109V68.2609H56.164V56.4109H44.314ZM55.053 57.5219V61.7187H50.8562V57.5219H55.053ZM49.6218 57.5219V61.7187H45.4249V57.5219H49.6218ZM45.5483 67.0266V62.9531H49.7452V67.15H45.5483V67.0266ZM50.8562 67.0266V62.9531H55.053V67.15H50.8562V67.0266ZM22.7124 59.6203H33.0812V74.1859H22.7124V59.6203Z" fill="#89664C"/>
<path d="M21.7251 57.5219H34.1923V59.6203H21.7251V57.5219Z" fill="#DBB471"/>
<path d="M31.3532 66.6562C31.7622 66.6562 32.0938 66.3247 32.0938 65.9156C32.0938 65.5066 31.7622 65.175 31.3532 65.175C30.9441 65.175 30.6125 65.5066 30.6125 65.9156C30.6125 66.3247 30.9441 66.6562 31.3532 66.6562Z" fill="#F9F3D9"/>
<path d="M2.46875 74.1859H76.5312V76.5313H2.46875V74.1859Z" fill="#83BF4F"/>
<path d="M61.225 41.2281H10.7391L2.46875 50.4859H69.6188L61.225 41.2281Z" fill="#ED4C5C"/>
<path d="M76.5313 69.3719C76.5313 67.8906 75.4204 66.7797 73.9391 66.7797C73.6922 66.7797 73.3219 66.7797 73.0751 66.9031C72.7047 66.2859 72.0875 65.7922 71.3469 65.7922C70.8532 65.7922 70.4829 65.9156 70.1125 66.1625V65.7922C70.1125 64.6812 69.2485 63.8172 68.1376 63.8172C67.1501 63.8172 66.4094 64.5578 66.1625 65.4219C65.9157 65.175 65.6688 65.175 65.2985 65.175C64.5579 65.175 63.9407 65.7922 63.9407 66.5328V74.3094H74.3094C75.4204 74.3094 76.2844 73.4453 76.2844 72.3344C76.2844 71.8406 76.0376 71.3469 75.7907 70.9766C76.2844 70.4828 76.5313 69.9891 76.5313 69.3719Z" fill="#83BF4F"/>
<path d="M76.5312 72.2109C76.5312 71.7172 76.2844 71.2234 76.0375 70.8531C76.4078 70.3594 76.5312 69.8656 76.5312 69.2484C76.5312 67.7672 75.4203 66.6562 73.9391 66.6562C73.6922 66.6562 73.3219 66.6562 73.075 66.7797C72.8281 66.4094 72.5813 66.0391 72.0875 65.7922C71.3469 66.0391 70.9766 66.7797 70.9766 67.5203C70.9766 67.7672 70.9766 67.8906 71.1 68.014C70.9766 67.8906 70.7297 67.8906 70.4828 67.8906C69.7422 67.8906 69.125 68.5078 69.125 69.2484C69.125 69.7422 69.3719 70.1125 69.8656 70.3594C69.6187 70.7297 69.3719 71.2234 69.3719 71.7172C69.3719 72.9515 70.3594 73.9391 71.5938 73.9391H74.5563C75.6672 74.1859 76.5312 73.3219 76.5312 72.2109ZM68.8781 72.5812C68.8781 73.3219 68.2609 72.3344 67.5203 72.3344C66.7797 72.3344 66.1625 73.3219 66.1625 72.5812C66.1625 71.8406 66.7797 71.2234 67.5203 71.2234C68.2609 71.2234 68.8781 71.8406 68.8781 72.5812ZM66.0391 70.3594C66.0391 70.7297 65.7922 70.3594 65.4219 70.3594C65.0516 70.3594 64.8047 70.7297 64.8047 70.3594C64.8047 69.9891 65.0516 69.7422 65.4219 69.7422C65.6688 69.6187 66.0391 69.9891 66.0391 70.3594Z" fill="#699635"/>
<path d="M67.15 68.3844C67.15 68.7547 66.9031 68.2609 66.5328 68.2609C66.1625 68.2609 65.9156 68.7547 65.9156 68.3844C65.9156 68.0141 66.1625 67.7672 66.5328 67.7672C66.9031 67.7672 67.15 68.0141 67.15 68.3844ZM72.5812 71.5937C72.5812 72.0875 72.2109 71.3469 71.7172 71.3469C71.2234 71.3469 70.8531 72.0875 70.8531 71.5937C70.8531 71.1 71.2234 70.7297 71.7172 70.7297C72.0875 70.7297 72.5812 71.1 72.5812 71.5937ZM75.05 69.2484C75.05 69.9891 74.4328 68.8781 73.6922 68.8781C72.9516 68.8781 72.3344 69.9891 72.3344 69.2484C72.3344 68.5078 72.9516 67.8906 73.6922 67.8906C74.4328 67.8906 75.05 68.5078 75.05 69.2484ZM75.05 72.3344C75.05 72.7047 74.8031 72.3344 74.4328 72.3344C74.0625 72.3344 73.8156 72.7047 73.8156 72.3344C73.8156 71.9641 74.0625 71.7172 74.4328 71.7172C74.8031 71.7172 75.05 71.9641 75.05 72.3344ZM69.2484 67.0266C69.2484 67.5203 68.8781 66.7797 68.3844 66.7797C67.8906 66.7797 67.5203 67.5203 67.5203 67.0266C67.5203 66.5328 67.8906 66.1625 68.3844 66.1625C68.8781 66.1625 69.2484 66.5328 69.2484 67.0266ZM14.8125 69.3719C14.8125 67.8906 13.7016 66.7797 12.2203 66.7797C11.9734 66.7797 11.6031 66.7797 11.3562 66.9031C10.9859 66.2859 10.3687 65.7922 9.62812 65.7922C9.13437 65.7922 8.76406 65.9156 8.39375 66.1625V65.7922C8.39375 64.6812 7.52969 63.8172 6.41875 63.8172C5.43125 63.8172 4.69062 64.5578 4.56719 65.4219C4.32031 65.175 4.07344 65.175 3.70312 65.175C2.9625 65.175 2.46875 65.7922 2.46875 66.5328V74.3094H12.8375C13.9484 74.3094 14.8125 73.4453 14.8125 72.3344C14.8125 71.8406 14.5656 71.3469 14.3187 70.9766C14.5656 70.4828 14.8125 69.9891 14.8125 69.3719Z" fill="#83BF4F"/>
<path d="M14.8125 72.2109C14.8125 71.7172 14.5656 71.2234 14.3188 70.8531C14.6891 70.3594 14.8125 69.8656 14.8125 69.2484C14.8125 67.7672 13.7016 66.6562 12.2203 66.6562C11.9734 66.6562 11.6031 66.6562 11.3562 66.7797C11.1094 66.4094 10.8625 66.0391 10.3687 65.7922C9.62812 66.0391 9.25781 66.7797 9.25781 67.5203C9.25781 67.7672 9.25781 67.8906 9.38125 68.014C9.25781 67.8906 9.01094 67.8906 8.76406 67.8906C8.02344 67.8906 7.40625 68.5078 7.40625 69.2484C7.40625 69.7422 7.65312 70.1125 8.14687 70.3594C7.9 70.7297 7.65312 71.2234 7.65312 71.7172C7.65312 72.9515 8.64062 73.9391 9.875 73.9391H12.8375C13.9484 74.1859 14.8125 73.3219 14.8125 72.2109ZM7.15938 72.5812C7.15938 73.3219 6.54219 72.3344 5.80156 72.3344C5.06094 72.3344 4.44375 73.3219 4.44375 72.5812C4.44375 71.8406 5.06094 71.2234 5.80156 71.2234C6.54219 71.2234 7.15938 71.8406 7.15938 72.5812ZM4.32031 70.3594C4.32031 70.7297 4.07344 70.3594 3.70312 70.3594C3.33281 70.3594 3.08594 70.7297 3.08594 70.3594C3.08594 69.9891 3.33281 69.7422 3.70312 69.7422C3.95 69.6187 4.32031 69.9891 4.32031 70.3594Z" fill="#699635"/>
<path d="M5.43115 68.3844C5.43115 68.7547 5.18428 68.2609 4.81396 68.2609C4.44365 68.2609 4.19678 68.7547 4.19678 68.3844C4.19678 68.0141 4.44365 67.7672 4.81396 67.7672C5.06084 67.7672 5.43115 68.0141 5.43115 68.3844ZM10.8624 71.5938C10.8624 72.0875 10.4921 71.3469 9.99834 71.3469C9.50459 71.3469 9.13428 72.0875 9.13428 71.5938C9.13428 71.1 9.50459 70.7297 9.99834 70.7297C10.3687 70.7297 10.8624 71.1 10.8624 71.5938ZM13.3312 69.2484C13.3312 69.9891 12.714 68.8781 11.9733 68.8781C11.2327 68.8781 10.6155 69.9891 10.6155 69.2484C10.6155 68.5078 11.3562 67.8906 11.9733 67.8906C12.714 67.8906 13.3312 68.5078 13.3312 69.2484ZM13.3312 72.3344C13.3312 72.7047 13.0843 72.3344 12.714 72.3344C12.3437 72.3344 12.0968 72.7047 12.0968 72.3344C12.0968 71.9641 12.3437 71.7172 12.714 71.7172C13.0843 71.5938 13.3312 71.9641 13.3312 72.3344ZM7.52959 67.0266C7.52959 67.5203 7.15928 66.7797 6.66553 66.7797C6.17178 66.7797 5.80146 67.5203 5.80146 67.0266C5.80146 66.5328 6.17178 66.1625 6.66553 66.1625C7.15928 66.1625 7.52959 66.5328 7.52959 67.0266Z" fill="#83BF4F"/>
</svg>
