<svg width="70" height="63" viewBox="0 0 70 63" fill="none" xmlns="http://www.w3.org/2000/svg">
<path d="M0.404542 26.9274C1.09148 25.4111 22.3544 2.79343 35.6215 0C48.8885 2.79343 68.9085 25.4111 69.5955 26.9274C69.9105 41.0146 70.3214 48.9128 69.5955 63H55.923C57.172 36.8994 51.7798 21.8468 36.0358 21.8468C18.9681 21.8468 14.8996 36.8994 16.1486 63H0.404542C-0.321393 48.9128 0.0895479 41.0146 0.404542 26.9274Z" fill="#706D54"/>
<path d="M37 35.9411C25.8134 35.9411 23.8445 42.7399 24.5 63L48 63C48.6201 42.9177 48.1866 35.9411 37 35.9411Z" fill="#706D54"/>
<path d="M12.0054 7.1129H0.40454L0.404542 26.9274C4.33092 22.9475 6.83694 19.6576 12.0054 16.7661L12.0054 7.1129Z" fill="#706D54"/>
</svg>
