<svg width="60" height="60" viewBox="0 0 60 60" fill="none" xmlns="http://www.w3.org/2000/svg">
<path d="M16.8516 44.1516L12.5766 40.5609L10.4719 37.8375L7.15786 34.6453C7.15786 34.6453 6.83911 33.9375 6.71724 33.3844C6.61411 32.9063 6.61411 31.8609 6.61411 31.8609L3.59536 28.35L2.55005 25.8609L2.01099 23.2125C2.01099 23.2125 3.48755 24.0891 4.53286 24.8484C5.57817 25.6078 6.89067 26.3344 6.89067 26.3344L7.31255 22.8281L8.35786 18.6797L10.2 17.7422C10.2 17.7422 10.3782 16.5141 11.4985 15.4312C12.6188 14.3484 14.0954 13.8797 14.0954 13.8797L20.1235 13.5187L25.2844 13.1203L30.3375 9.87187C30.3375 9.87187 32.5735 9.58125 34.9219 10.1625C37.2704 10.7437 43.0407 13.7344 43.0407 13.7344L50.9063 14.2031L52.6407 16.1156C52.6407 16.1156 54.6375 16.8937 56.1047 17.9578C57.436 18.9187 57.5532 19.5 57.5532 19.5L56.1422 26.1516L50.6579 34.6688L43.5282 37.6922L27.5954 44.5875L26.1985 46.9781L20.1516 45.7125L16.8516 44.1516Z" fill="#B7885A"/>
<path d="M14.3718 28.1625C14.3718 28.1625 13.1905 28.875 12.3843 28.4016C11.5405 27.9047 10.9171 27.1594 10.7296 25.2422C10.4905 22.7766 11.3905 20.9391 11.3905 20.9391L13.6921 19.4953L15.6796 19.8563L20.6905 16.0219H26.8265L29.353 15.6609L36.2999 15.3L46.0452 18.0984L49.4296 22.1578L48.2109 25.95L47.353 26.625C47.353 26.625 46.8562 27.6281 44.7702 28.7859C43.664 29.4 42.6609 29.9625 42.6609 29.9625L22.1765 30.0984L14.3718 28.1625Z" fill="#8C6238"/>
<path d="M49.3124 32.4328C49.3124 32.4328 48.6046 31.9922 48.914 31.1062C49.2233 30.2203 49.8655 29.9766 51.2577 29.1187C52.6452 28.2562 53.8077 27.3703 54.7827 25.6969C56.0952 23.4422 57.5437 19.4672 57.5437 19.4672C57.5437 19.4672 58.3546 21.3187 57.8905 24.5203C57.5952 26.5687 56.9202 27.7922 56.9202 27.7922C56.9202 27.7922 56.8312 30.6187 56.5218 31.725C56.2124 32.8312 55.1062 34.9078 55.1062 34.9078L52.2796 38.7516C52.2796 38.7516 51.9655 40.4813 50.4233 42.5953C49.6921 43.5938 48.3515 44.1469 47.3718 44.3953C45.3093 44.9156 42.7827 45.8578 41.1843 46.7062C40.2749 47.1891 36.1312 50.0578 33.8062 50.7281C29.7327 51.9094 27.3749 49.7391 26.4702 49.3125C26.0015 49.0922 24.3515 48.3844 23.5546 47.8547C22.7577 47.325 22.0499 46.7062 22.0499 46.7062C22.0499 46.7062 19.003 46.6641 18.2483 46.0875C17.4983 45.5109 19.0874 44.1891 19.0874 44.1891C19.0874 44.1891 20.5452 45.2063 22.4015 45.6938C24.2577 46.1813 25.7155 46.4016 25.8046 45.825C25.8937 45.2484 24.2999 45.075 22.8421 44.3672C21.3843 43.6594 19.9687 42.8625 19.4858 42.4219C18.9983 41.9812 18.9983 41.2734 19.2655 40.8328C19.5327 40.3922 20.0624 40.0828 20.9905 40.4344C21.9187 40.7859 23.5124 41.7 25.0124 42.2484C26.4702 42.7781 28.0171 43.3547 28.3265 42.2906C28.6358 41.2266 27.2671 41.0109 26.1608 40.3922C25.0546 39.7734 23.9952 39.1125 23.5968 38.7141C23.1983 38.3156 23.1093 37.5656 23.6858 37.0359C24.2624 36.5063 25.2749 36.7688 25.2749 36.7688L30.5343 38.4469L35.7468 38.5359L40.078 36.4172L41.5358 36.0656L43.1718 35.2687L49.3124 32.4328ZM7.12491 34.5656C7.12491 34.5656 7.4671 34.2 7.81866 34.5516C8.17022 34.9031 9.49678 36.7641 11.1749 37.2047C12.853 37.6453 13.889 37.5141 14.0062 38.5172C14.1374 39.6516 12.3233 39.5766 10.9546 39.0562C9.24366 38.4047 8.42804 36.9938 7.98741 36.2859C7.54679 35.5828 7.12491 34.5656 7.12491 34.5656ZM5.37647 27.3375C4.88897 27.8062 5.17022 28.4766 5.92022 29.2687C6.67022 30.0609 7.42022 30.6562 7.89835 30.9516C8.37647 31.2469 8.94366 31.1578 9.19679 30.7687C9.38897 30.4687 9.35616 29.9484 8.90147 29.5406C8.53116 29.2078 7.9921 28.6312 7.17178 27.9281C6.76866 27.5812 6.10303 26.6297 5.37647 27.3375Z" fill="#A2764A"/>
<path d="M36.5203 41.5594C36.4968 42.3234 37.3078 42.6141 39.5437 42.2859C42.0187 41.9203 42.2015 41.4141 42.0937 40.5375C41.9859 39.6609 40.6734 39.9937 39.3281 40.2094C37.9734 40.4344 36.5578 40.3969 36.5203 41.5594ZM55.3031 33.4781C54.8671 33.4781 53.4093 34.9359 51.8109 36.0281C50.2125 37.1203 48.464 38.175 47.9531 38.4656C47.4421 38.7562 47.114 39.3375 47.3343 39.8859C47.5546 40.4297 48.4968 40.65 49.5187 40.2516C50.5359 39.8531 51.8531 39.1219 52.8328 38.3953C54.1078 37.4484 55.2 36.5391 55.5984 35.0109C55.8 34.2234 55.739 33.4781 55.3031 33.4781Z" fill="#B7885A"/>
<path d="M25.6874 25.575L29.8358 22.7109C29.8358 22.7109 30.3515 23.775 30.6421 24.4359C30.9374 25.0969 31.303 26.3063 31.303 26.3063L44.0249 21.3609C44.0249 21.3609 44.878 22.7438 44.7608 26.0578C44.7093 27.525 44.5077 28.9594 44.5077 28.9594C44.5077 28.9594 42.7546 30.7781 38.6811 31.3031C33.8249 31.9313 30.5296 31.3031 30.5296 31.3031C30.5296 31.3031 29.2827 32.4797 26.2358 32.7C23.189 32.9203 21.539 32.8453 21.5718 32.1516C21.6093 31.4531 22.4905 31.8937 23.5171 31.5656C24.5436 31.2375 25.3874 30.3563 25.3874 30.3563L25.6874 25.575Z" fill="#929698"/>
<path d="M42.4078 19.5516C40.9922 18.6141 38.1703 18.1781 34.8375 20.6813C31.9922 22.8188 31.0781 25.6031 31.0781 25.6031C31.0781 25.6031 31.5984 26.9344 31.725 28.4813C31.8516 30.0094 31.7672 31.4391 31.7672 31.4391C31.7672 31.4391 32.2547 31.4953 32.6484 31.5281C33.3187 31.5797 33.7547 31.5609 33.7547 31.5609C33.7547 31.5609 36.6047 30.6938 40.1391 27.7781C43.6781 24.8672 44.5312 22.8844 44.5312 22.8844C44.5312 22.8844 44.4375 21.9609 43.8047 20.9438C43.5 20.4609 43.0453 19.9688 42.4078 19.5516Z" fill="#E7E7E7"/>
<path d="M39.2438 20.2641C38.3673 19.9031 36.6188 20.3484 34.7813 23.0344C32.9438 25.7203 32.3907 27.7828 33.5391 28.3453C34.6969 28.9125 35.5126 28.05 36.1079 26.9344C36.8907 25.4719 37.6594 23.8688 38.761 22.4438C39.2298 21.8344 40.0594 20.6016 39.2438 20.2641Z" fill="white"/>
<path d="M17.0954 28.8188C17.0954 28.8188 17.011 26.0484 17.8032 23.5922C18.5954 21.1359 20.086 18.3188 23.3391 18.0844C27.6329 17.775 29.836 22.7109 29.836 22.7109C29.836 22.7109 29.3016 25.7953 27.3516 27.8297C25.4016 29.8641 24.3001 30.3703 24.3001 30.3703L18.5954 29.8922L17.0954 28.8188Z" fill="#E7E7E7"/>
<path d="M20.1609 22.8891C19.7249 22.2844 19.9124 21.0187 20.8031 20.0625C21.7781 19.0219 22.7765 18.9422 23.5874 19.3125C24.3984 19.6875 24.1921 20.6203 23.1702 21.4734C22.5609 21.9844 22.5046 22.6734 21.8624 23.1562C21.4499 23.4703 20.5359 23.4094 20.1609 22.8891Z" fill="white"/>
<path d="M33.825 34.0359C34.0313 34.35 34.425 34.6078 35.3344 34.0828C37.2656 32.9672 39.4641 31.3359 41.1703 30.0844C43.1016 28.6688 45.2391 26.6672 45.6094 26.2734C45.9797 25.8797 46.7438 24.9141 46.2141 24.4359C45.4922 23.7844 44.925 24.5672 43.9125 25.4813C42.6563 26.6203 40.8656 28.1766 39.7266 29.0859C38.5875 29.9906 35.3344 32.1797 34.936 32.4328C34.5469 32.6906 33.3375 33.2953 33.825 34.0359ZM12.9516 25.9172C12.4406 26.3156 12.6047 27.1828 13.4578 28.0078C14.311 28.8328 15.2625 29.9063 18.3656 30.7922C18.7547 30.9047 19.1344 30.9938 19.5 31.0688C22.0781 31.5891 24.136 31.2703 24.886 31.0781C25.7391 30.8578 26.5313 29.9063 25.8375 29.2406C25.3172 28.7438 22.3172 29.7328 18.8766 28.6688C14.6578 27.375 14.25 24.9047 12.9516 25.9172ZM13.9969 30.4453C13.6828 31.1297 13.9641 31.5844 15.075 31.9969C16.186 32.4094 18.0844 33 18.7125 33.3563C19.6031 33.8625 20.2547 33.5625 20.4516 33.1031C20.7375 32.4375 20.2313 31.9781 19.6922 31.7109C18.9938 31.3641 16.561 30.3516 15.7688 30.1266C15.1031 29.9438 14.3438 29.6859 13.9969 30.4453ZM41.086 34.0641C40.8797 34.7156 41.1656 35.6484 43.8938 35.7797C46.0828 35.8828 47.8406 35.1234 48.9094 34.4531C50.025 33.75 50.5735 32.6063 50.1047 32.0859C49.636 31.5656 48.9328 32.0344 47.9203 32.6063C46.7953 33.2391 45.6328 33.8297 43.3969 33.5953C42.4219 33.4969 41.3063 33.3891 41.086 34.0641ZM36.661 37.1578C36.661 37.1578 35.4703 36.8438 35.1891 36.3141C34.9078 35.7844 35.1281 35.25 35.6578 35.1234C36.1875 34.9969 36.9094 35.3719 38.1938 35.5313C39.4781 35.6859 40.6641 35.625 41.1985 35.625C42.2625 35.625 42.2953 36.9094 41.325 37.3125C40.3547 37.7203 39.2625 37.5609 39.2625 37.5609C39.2625 37.5609 37.95 39.75 33.6938 39.5953C29.4375 39.4406 25.8047 37.3219 25.2188 36.9984C24.1875 36.4359 24.811 35.4047 25.4672 35.5594C26.1235 35.7141 30.6281 37.7813 33.1641 37.8094C35.6906 37.8469 36.661 37.1578 36.661 37.1578ZM13.6875 36.1734C13.3547 37.0359 12.6469 37.0266 11.3391 36.3891C10.0313 35.7469 6.30002 32.5734 4.6172 30.8156C2.93908 29.0531 2.72345 28.4438 2.64377 27.9609C2.59689 27.6563 2.43283 27.075 2.43283 27.075C2.43283 27.075 1.10158 25.6313 1.0172 24.6469C0.914079 23.3672 1.44845 22.9688 2.08595 23.2359C2.72814 23.5031 2.43283 24.0609 2.67189 24.8344C2.7797 25.1766 3.82033 26.1141 3.9797 26.7563C4.10627 27.2578 4.19533 27.5297 4.24689 27.825C4.29845 28.1203 5.25939 29.5594 7.98283 31.7203C10.3313 33.5859 11.9016 34.3359 12.5438 34.6266C13.186 34.9172 14.011 35.3438 13.6875 36.1734ZM6.72189 26.2078C6.72189 26.2078 4.38283 23.0672 5.85002 19.7063C6.87189 17.3578 8.64845 17.3578 9.37033 17.3906C9.82033 17.4094 10.4531 17.6625 10.3641 18.4453C10.2328 19.5656 9.4172 19.0922 8.70939 19.7719C8.01564 20.4328 7.74845 21.8203 8.19845 23.8969C8.64845 25.9734 9.66564 27.3281 9.7922 27.9281C9.91408 28.5 9.4922 28.7719 9.03752 28.5281C8.58283 28.2844 7.47189 27.2109 6.72189 26.2078Z" fill="#D29B64"/>
<path d="M12.9845 43.2563C12.9845 43.2563 11.5689 44.7703 10.6079 47.3203C9.64699 49.8703 9.36105 51.9797 9.80637 52.4203C10.2517 52.8656 14.7611 51.3844 17.1611 49.5375C20.6064 46.8844 19.6361 44.4375 19.6361 44.4375C19.6361 44.4375 18.9095 43.6172 17.6532 43.0266C16.5611 42.5109 15.4595 42.1828 15.4595 42.1828C15.4595 42.1828 15.1267 41.1094 14.1282 40.3359C13.1298 39.5578 11.8361 39.1172 10.322 39.1922C8.80793 39.2672 6.60012 40.4625 5.60168 41.5359C4.60324 42.6094 3.8298 43.6734 3.99855 44.0719C4.23762 44.6344 6.97043 43.5797 9.03762 43.5422C11.1142 43.5047 12.9845 43.2563 12.9845 43.2563Z" fill="#6E9921"/>
<path d="M12.1218 49.5938C12.5061 49.8141 14.5827 47.2828 15.8905 46.0641C17.1702 44.8688 18.5061 43.5 18.5061 43.5C18.5061 43.5 18.0983 43.2469 17.7093 43.0266C17.4655 42.8906 17.0296 42.7547 17.0296 42.7547C17.0296 42.7547 15.9936 43.2984 14.5358 45.2859C13.3452 46.8984 11.7655 49.3875 12.1218 49.5938ZM7.01238 41.7844C7.25145 42.3797 8.30145 41.3578 10.4436 41.1047C12.5249 40.8563 14.9764 41.2922 14.9764 41.2922C14.9764 41.2922 14.7186 40.7813 14.2639 40.3922C13.8233 40.0172 13.3639 39.7969 13.3639 39.7969C13.3639 39.7969 11.2077 39.525 9.73113 40.0688C8.42332 40.5469 6.76863 41.1703 7.01238 41.7844Z" fill="#2F7C31"/>
<path d="M51.014 18.7922C50.5453 18.6047 49.8468 18.3797 49.4484 19.0219C49.364 19.1578 49.3172 19.2891 49.2937 19.4063C48.5062 18.5016 47.5687 18.2953 47.414 18.2672C47.6484 18.3094 50.2922 18.7453 50.2922 17.6953C50.2922 16.5984 48.8953 16.3641 47.3906 16.1109C45.8859 15.8625 43.4297 15.8906 43.4297 15.8906C43.4297 15.8906 44.9156 15.1969 46.5 15.0328C47.9015 14.8875 48.6375 14.9344 49.6359 15.4031C50.639 15.8719 50.9859 16.8141 51.5203 16.8469C52.0547 16.8797 52.8562 16.3828 52.8234 15.8484C52.7906 15.3141 52.1812 14.3391 51.2718 13.6172C51.2568 13.6076 51.2427 13.5966 51.2297 13.5844C50.8125 13.2469 50.1234 12.9 49.0125 12.6984C48.825 12.6609 48.7078 12.6422 48.7078 12.6422C48.7078 12.6422 47.564 11.4047 46.6547 10.5563C45.7453 9.70781 45.0281 9.17813 44.4937 9.14531C43.9593 9.1125 43.8797 9.54375 43.964 9.87656C44.039 10.1625 45.7968 11.9953 46.3172 12.5297C42.614 12.6656 40.2656 14.1563 40.2656 14.1563C40.2656 14.1563 38.4093 12.9281 35.5781 12.4219C33.2672 12.0047 31.4062 12.4453 31.4062 12.4453C31.4062 12.4453 32.414 11.85 32.2359 10.7344C32.0906 9.80625 29.864 9.12187 26.7797 10.4953C24.314 11.5922 23.2125 12.6891 23.2125 12.6891C23.2125 12.6891 20.8312 11.6859 19.8 11.2781C18.7687 10.8703 17.7937 10.275 17.4515 10.275C17.1093 10.275 16.575 11.0906 16.6359 11.3063C16.6968 11.5219 17.7328 12.4313 17.7328 12.4313C17.7328 12.4313 15.3234 12.3703 13.2234 12.2766C11.1234 12.1875 10.3125 12.1266 9.68435 12.1875C9.05622 12.2484 8.08591 12.8766 8.17966 13.4719C8.27341 14.0672 10.6828 13.9734 12.1547 14.0672C13.6265 14.1609 15.4734 14.1281 15.4734 14.1281C15.4734 14.1281 13.875 15.0656 13.064 15.8203C12.2484 16.5703 11.7468 17.2922 12.314 17.9813C12.8765 18.6703 13.7859 17.8547 14.5687 17.1375C15.3515 16.4156 16.1672 15.7266 17.1656 15.4781C18.1687 15.2297 19.0734 15.3234 19.0734 15.3234C19.0734 15.3234 17.5453 16.2703 16.9125 16.8562C16.0265 17.6812 15.6281 18.5766 15.6281 18.5766C15.6281 18.5766 13.6547 18.2344 12.6515 18.7641C11.6484 19.2937 10.0406 19.9969 9.9281 22.3031C9.8156 24.6 10.65 24.525 10.9312 24.5578C11.2125 24.5906 11.5265 23.9953 11.6203 23.3344C11.714 22.6734 11.8078 21.675 12.8109 20.8922C13.814 20.1094 14.8172 20.3906 14.8172 20.3906C14.8172 20.3906 14.3156 21.5484 14.9437 21.9234C15.5718 22.2984 15.975 21.4828 16.6031 20.7984C17.2312 20.1094 18.2156 18.9797 21.1593 17.7422C24.1031 16.5047 24.9375 16.4719 25.664 16.3969C26.3906 16.3219 27.0093 16.1766 27.0093 15.5625C27.0093 14.9438 25.6265 14.8359 25.6265 14.8359C25.6265 14.8359 26.1 13.8188 27.5531 12.9844C29.0062 12.15 30.1312 12.2016 30.2578 12.525C30.525 13.2328 28.5 13.3828 28.3922 14.8734C28.2843 16.3641 30.2156 15.9094 31.0922 15.8719C31.964 15.8344 33.3609 15.8297 34.8562 16.0922C36.2015 16.3266 37.8797 16.7953 39.0843 17.2406C40.7953 17.8781 41.6578 18.8438 42.164 19.0266C42.6703 19.2094 44.7047 19.05 46.589 20.2266C48.2859 21.2859 48.5953 23.2875 48.0187 24.6141C47.6531 25.4484 47.25 26.0719 47.2547 26.4656C47.2593 26.8594 47.6203 26.9391 48.1265 26.5406C49.5609 25.4156 50.4422 23.625 50.5031 22.7906C50.5078 22.7391 50.5031 22.7016 50.5031 22.65C50.5125 22.5469 50.5125 22.4344 50.5078 22.3219C50.5078 22.2937 50.5078 22.2609 50.5031 22.2328C50.4984 22.1484 50.4843 22.0594 50.4703 21.9703C50.4606 21.898 50.4481 21.826 50.4328 21.7547C50.4187 21.6938 50.4 21.6328 50.3859 21.5719C50.3718 21.5297 50.3625 21.4875 50.3531 21.45C50.2922 21.2437 50.2172 21.0281 50.114 20.7938C50.6531 21.0188 52.0922 21.6563 52.1109 22.1156C52.1625 23.1328 50.639 25.1812 49.2609 26.3062C47.8828 27.4312 44.3297 28.8891 43.8609 29.0766C43.3922 29.2641 42.7218 29.6344 42.8765 30.2531C43.0218 30.8344 43.9968 30.9328 44.5968 30.7547C45.764 30.4125 48.4125 29.4797 50.4797 27.7594C52.5468 26.0391 53.8968 23.775 54.0562 22.1156C54.2109 20.4516 51.4828 18.9797 51.014 18.7922Z" fill="#D29B64"/>
</svg>
